<mxfile host="app.diagrams.net" agent="Mozilla/5.0 (Windows NT 10.0; Win64; x64) AppleWebKit/537.36 (KHTML, like Gecko) Chrome/125.0.0.0 Safari/537.36" version="24.7.17">
  <diagram name="Page-1" id="L4T1ko9H-3CBtuOSf_hA">
    <mxGraphModel dx="1434" dy="780" grid="1" gridSize="10" guides="1" tooltips="1" connect="1" arrows="1" fold="1" page="1" pageScale="1" pageWidth="850" pageHeight="1100" math="0" shadow="0">
      <root>
        <mxCell id="0" />
        <mxCell id="1" parent="0" />
        <mxCell id="aNTxTVqQGTkDfatdlSMz-3" value="" style="edgeStyle=orthogonalEdgeStyle;rounded=0;orthogonalLoop=1;jettySize=auto;html=1;" edge="1" parent="1" source="aNTxTVqQGTkDfatdlSMz-1" target="aNTxTVqQGTkDfatdlSMz-2">
          <mxGeometry relative="1" as="geometry" />
        </mxCell>
        <mxCell id="aNTxTVqQGTkDfatdlSMz-1" value="start" style="rounded=1;whiteSpace=wrap;html=1;" vertex="1" parent="1">
          <mxGeometry x="360" y="60" width="120" height="60" as="geometry" />
        </mxCell>
        <mxCell id="aNTxTVqQGTkDfatdlSMz-5" value="" style="edgeStyle=orthogonalEdgeStyle;rounded=0;orthogonalLoop=1;jettySize=auto;html=1;" edge="1" parent="1" source="aNTxTVqQGTkDfatdlSMz-2" target="aNTxTVqQGTkDfatdlSMz-4">
          <mxGeometry relative="1" as="geometry" />
        </mxCell>
        <mxCell id="aNTxTVqQGTkDfatdlSMz-2" value="int num;&lt;div&gt;int numCopy = num;&lt;br&gt;&lt;div&gt;int digit;&lt;/div&gt;&lt;div&gt;int reverseNum = 0;&lt;/div&gt;&lt;/div&gt;" style="shape=parallelogram;perimeter=parallelogramPerimeter;whiteSpace=wrap;html=1;fixedSize=1;" vertex="1" parent="1">
          <mxGeometry x="350" y="170" width="140" height="70" as="geometry" />
        </mxCell>
        <mxCell id="aNTxTVqQGTkDfatdlSMz-7" value="" style="edgeStyle=orthogonalEdgeStyle;rounded=0;orthogonalLoop=1;jettySize=auto;html=1;" edge="1" parent="1" source="aNTxTVqQGTkDfatdlSMz-4" target="aNTxTVqQGTkDfatdlSMz-6">
          <mxGeometry relative="1" as="geometry" />
        </mxCell>
        <mxCell id="aNTxTVqQGTkDfatdlSMz-4" value="digit = num % 10;&lt;div&gt;num = (num - digit) / 10&lt;/div&gt;" style="whiteSpace=wrap;html=1;" vertex="1" parent="1">
          <mxGeometry x="340" y="300" width="160" height="60" as="geometry" />
        </mxCell>
        <mxCell id="aNTxTVqQGTkDfatdlSMz-9" value="" style="edgeStyle=orthogonalEdgeStyle;rounded=0;orthogonalLoop=1;jettySize=auto;html=1;" edge="1" parent="1" source="aNTxTVqQGTkDfatdlSMz-6" target="aNTxTVqQGTkDfatdlSMz-8">
          <mxGeometry relative="1" as="geometry" />
        </mxCell>
        <mxCell id="aNTxTVqQGTkDfatdlSMz-6" value="reverseNum *= 10;&lt;div&gt;reverseNum += digit&lt;/div&gt;" style="whiteSpace=wrap;html=1;" vertex="1" parent="1">
          <mxGeometry x="340" y="430" width="160" height="60" as="geometry" />
        </mxCell>
        <mxCell id="aNTxTVqQGTkDfatdlSMz-10" value="true" style="edgeStyle=orthogonalEdgeStyle;rounded=0;orthogonalLoop=1;jettySize=auto;html=1;exitX=1;exitY=0.5;exitDx=0;exitDy=0;entryX=0.5;entryY=0;entryDx=0;entryDy=0;" edge="1" parent="1" source="aNTxTVqQGTkDfatdlSMz-8" target="aNTxTVqQGTkDfatdlSMz-4">
          <mxGeometry x="-0.8519" relative="1" as="geometry">
            <Array as="points">
              <mxPoint x="540" y="600" />
              <mxPoint x="540" y="280" />
              <mxPoint x="420" y="280" />
            </Array>
            <mxPoint as="offset" />
          </mxGeometry>
        </mxCell>
        <mxCell id="aNTxTVqQGTkDfatdlSMz-12" value="false" style="edgeStyle=orthogonalEdgeStyle;rounded=0;orthogonalLoop=1;jettySize=auto;html=1;" edge="1" parent="1" source="aNTxTVqQGTkDfatdlSMz-8" target="aNTxTVqQGTkDfatdlSMz-11">
          <mxGeometry relative="1" as="geometry" />
        </mxCell>
        <mxCell id="aNTxTVqQGTkDfatdlSMz-8" value="num &amp;gt; 0" style="rhombus;whiteSpace=wrap;html=1;" vertex="1" parent="1">
          <mxGeometry x="380" y="560" width="80" height="80" as="geometry" />
        </mxCell>
        <mxCell id="aNTxTVqQGTkDfatdlSMz-14" value="true" style="edgeStyle=orthogonalEdgeStyle;rounded=0;orthogonalLoop=1;jettySize=auto;html=1;" edge="1" parent="1" source="aNTxTVqQGTkDfatdlSMz-11" target="aNTxTVqQGTkDfatdlSMz-13">
          <mxGeometry relative="1" as="geometry" />
        </mxCell>
        <mxCell id="aNTxTVqQGTkDfatdlSMz-17" value="false" style="edgeStyle=orthogonalEdgeStyle;rounded=0;orthogonalLoop=1;jettySize=auto;html=1;" edge="1" parent="1" source="aNTxTVqQGTkDfatdlSMz-11" target="aNTxTVqQGTkDfatdlSMz-16">
          <mxGeometry relative="1" as="geometry" />
        </mxCell>
        <mxCell id="aNTxTVqQGTkDfatdlSMz-11" value="reverseNum == numCopy" style="rhombus;whiteSpace=wrap;html=1;" vertex="1" parent="1">
          <mxGeometry x="330" y="720" width="180" height="80" as="geometry" />
        </mxCell>
        <mxCell id="aNTxTVqQGTkDfatdlSMz-19" style="edgeStyle=orthogonalEdgeStyle;rounded=0;orthogonalLoop=1;jettySize=auto;html=1;exitX=1;exitY=0.5;exitDx=0;exitDy=0;entryX=1;entryY=0.5;entryDx=0;entryDy=0;" edge="1" parent="1" source="aNTxTVqQGTkDfatdlSMz-13" target="aNTxTVqQGTkDfatdlSMz-18">
          <mxGeometry relative="1" as="geometry" />
        </mxCell>
        <mxCell id="aNTxTVqQGTkDfatdlSMz-13" value="The number is polindrome" style="shape=document;whiteSpace=wrap;html=1;boundedLbl=1;" vertex="1" parent="1">
          <mxGeometry x="580" y="720" width="170" height="80" as="geometry" />
        </mxCell>
        <mxCell id="aNTxTVqQGTkDfatdlSMz-20" style="edgeStyle=orthogonalEdgeStyle;rounded=0;orthogonalLoop=1;jettySize=auto;html=1;exitX=0;exitY=0.5;exitDx=0;exitDy=0;entryX=0;entryY=0.5;entryDx=0;entryDy=0;" edge="1" parent="1" source="aNTxTVqQGTkDfatdlSMz-16" target="aNTxTVqQGTkDfatdlSMz-18">
          <mxGeometry relative="1" as="geometry" />
        </mxCell>
        <mxCell id="aNTxTVqQGTkDfatdlSMz-16" value="The number is not polindrome" style="shape=document;whiteSpace=wrap;html=1;boundedLbl=1;" vertex="1" parent="1">
          <mxGeometry x="90" y="720" width="170" height="80" as="geometry" />
        </mxCell>
        <mxCell id="aNTxTVqQGTkDfatdlSMz-18" value="end" style="rounded=1;whiteSpace=wrap;html=1;" vertex="1" parent="1">
          <mxGeometry x="360" y="880" width="120" height="60" as="geometry" />
        </mxCell>
      </root>
    </mxGraphModel>
  </diagram>
</mxfile>
